<svg xmlns="http://www.w3.org/2000/svg" xmlns:xlink="http://www.w3.org/1999/xlink" width="2000" height="2000" viewBox="0 0 2000 2000">
  <defs>
    <clipPath id="clip-cloudbase-logo">
      <rect width="2000" height="2000"/>
    </clipPath>
  </defs>
  <g id="cloudbase-logo" clip-path="url(#clip-cloudbase-logo)">
    <path id="Super" d="M1960.142,1104.545c-.683,142.945-12.711,279.132-41.82,393.073-29.124,114.545-75.328,206.845-144.734,275.957-69.113,69.408-161.422,115.62-275.971,144.749-113.945,29.113-250.131,41.14-393.076,41.822-142.945-.682-279.132-12.711-393.073-41.82C596.922,1889.2,504.622,1843,435.511,1773.593c-69.407-69.113-115.62-161.422-144.748-275.971-29.113-113.945-41.14-250.131-41.823-393.077.682-142.945,12.711-279.132,41.82-393.073,29.125-114.547,75.33-206.847,144.736-275.959,69.113-69.407,161.422-115.62,275.971-144.748,113.945-29.113,250.132-41.14,393.076-41.823,142.946.682,279.132,12.711,393.073,41.82,114.545,29.124,206.845,75.328,275.957,144.734,69.407,69.113,115.62,161.422,144.748,275.971C1947.432,825.414,1959.458,961.6,1960.142,1104.545Z" transform="translate(-104.541 -104.545)" fill="#121316"/>
    <g id="material-cloud" transform="translate(615.542 615.542)">
      <path id="Path_20" data-name="Path 20" d="M0,0H768.916V768.916H0Z" fill="none"/>
      <path id="Path_21" data-name="Path 21" d="M620.259,197.511C598.153,86.979,501.077,4,384.458,4,291.868,4,211.452,56.543,171.4,133.434A192.037,192.037,0,0,0,0,324.382C0,430.428,86.183,516.611,192.229,516.611h416.5A160.249,160.249,0,0,0,768.916,356.42C768.916,271.839,703.238,203.277,620.259,197.511Z" transform="translate(0 124.153)" fill="#fff"/>
    </g>
  </g>
</svg>
