<svg xmlns="http://www.w3.org/2000/svg" xmlns:xlink="http://www.w3.org/1999/xlink" width="6500" height="1400" viewBox="0 0 6500 1400">
  <defs>
    <clipPath id="clip-logo-mark">
      <rect width="6500" height="1400"/>
    </clipPath>
  </defs>
  <g id="logo-mark" clip-path="url(#clip-logo-mark)">
    <text id="CloudBase" transform="translate(1488.801 1060.801)" fill="#1a1a1a" font-size="1000" font-family="ProductSans-Bold, Product Sans" font-weight="700"><tspan x="0" y="0">CloudBase</tspan></text>
    <path id="Super" d="M1476.06,862.5c-.49,102.507-9.115,200.168-29.989,281.877-20.885,82.141-54.018,148.331-103.79,197.891-49.562,49.773-115.757,82.913-197.9,103.8-81.711,20.877-179.371,29.5-281.879,29.991-102.508-.489-200.168-9.115-281.877-29.989-82.142-20.885-148.331-54.018-197.891-103.79-49.773-49.562-82.912-115.757-103.8-197.9-20.877-81.711-29.5-179.371-29.991-281.879.489-102.507,9.115-200.168,29.989-281.877,20.886-82.143,54.02-148.332,103.792-197.893,49.562-49.773,115.757-82.912,197.9-103.8,81.711-20.877,179.372-29.5,281.879-29.991,102.508.489,200.168,9.115,281.877,29.989,82.141,20.885,148.331,54.018,197.891,103.79,49.773,49.562,82.912,115.757,103.8,197.9C1466.945,662.336,1475.57,760,1476.06,862.5Z" transform="translate(-142.74 -162.744)" fill="#121316"/>
    <g id="material-cloud" transform="translate(444.061 424.061)">
      <path id="Path_20" data-name="Path 20" d="M0,0H551.4V551.4H0Z" transform="translate(0 0)" fill="none"/>
      <path id="Path_21" data-name="Path 21" d="M444.794,142.768C428.941,63.505,359.327,4,275.7,4A172.212,172.212,0,0,0,122.916,96.819,137.793,137.793,0,0,0,137.849,371.6H436.523A114.916,114.916,0,0,0,551.4,256.724C551.4,196.07,504.3,146.9,444.794,142.768Z" transform="translate(0 87.9)" fill="#fff"/>
    </g>
  </g>
</svg>
