<svg xmlns="http://www.w3.org/2000/svg" xmlns:xlink="http://www.w3.org/1999/xlink" viewBox="0 0 6259.56657 1227.11911"><defs><style>.a{fill:none;}.b{clip-path:url(#a);}.c{isolation:isolate;}.d{fill:#1a1a1a;}.e{fill:#121316;}.f{fill:#fff;}</style><clipPath id="a" transform="translate(-106.20296 -86.19585)"><rect class="a" width="6500" height="1400"/></clipPath></defs><g class="b"><g class="c"><g class="c"><path class="d" d="M2186.80078,945.80078q-53.01562,64.00782-125,97.5-72,33.49219-161,33.5-80.01562,0-148.5-29-68.50781-28.99218-118.5-79-50.01562-49.99218-79-118.5-29.01562-68.48437-29-147.5,0-78.98437,29-147.5,28.99219-68.48438,79-118.5,49.99219-49.99218,118.5-79,68.48438-28.99218,148.5-29,85.99219,0,151.5,30,65.48438,30,116.5,87l-95,92a254.4446,254.4446,0,0,0-73.5-59q-41.50781-21.98437-98.5-22-50.01562,0-94,17.5a227.58654,227.58654,0,0,0-76.5,49.5q-32.50781,32.01563-51.5,77.5-19.00781,45.51563-19,101.5,0,56.01563,19,101.5,18.98438,45.51563,51.5,77.5a227.11175,227.11175,0,0,0,76.5,49.5q43.99219,17.50782,94,17.5,60,0,106.5-24.5,46.5-24.49218,82.5-69.5Z" transform="translate(-106.20296 -86.19585)"/><path class="d" d="M2268.7998,1060.80078v-716h131v716Z" transform="translate(-106.20296 -86.19585)"/><path class="d" d="M2738.80664,554.80078q57,0,104.5,19.5,47.48438,19.5,82,54,34.5,34.5,54,82.5t19.5,105q0,57-19.5,105t-54,82.5q-34.5,34.5-82,54-47.5078,19.5-104.5,19.5-57,0-104.5-19.5-47.5078-19.5-82-54-34.5-34.5-54-82.5t-19.5-105q0-57,19.5-105t54-82.5q34.5-34.5,82-54Q2681.791,554.80078,2738.80664,554.80078Zm0,401a128.12357,128.12357,0,0,0,48.5-9.5,123.70222,123.70222,0,0,0,41.5-27.5q18-18,28.5-44,10.5-25.99218,10.5-59,0-33-10.5-59-10.5-25.99218-28.5-44a123.93668,123.93668,0,0,0-41.5-27.5,128.425,128.425,0,0,0-48.5-9.5,127.11556,127.11556,0,0,0-49,9.5,125.06936,125.06936,0,0,0-41,27.5q-18,18-28.5,44-10.5,26.01563-10.5,59,0,33,10.5,59,10.5,26.01563,28.5,44a124.827,124.827,0,0,0,41,27.5A126.82642,126.82642,0,0,0,2738.80664,955.80078Z" transform="translate(-106.20296 -86.19585)"/><path class="d" d="M3416.80566,996.80078h-8a166.02751,166.02751,0,0,1-62,58.5q-39,21.49219-89,21.5-93,0-138.5-57-45.51562-57-45.5-152v-297h131v281q0,53.01563,23.5,78.5,23.48438,25.5,68.5,25.5,27,0,47.5-11.5a110.94176,110.94176,0,0,0,35-31q14.48438-19.5,22-46a206.55828,206.55828,0,0,0,7.5-56.5v-240h131v490h-123Z" transform="translate(-106.20296 -86.19585)"/><path class="d" d="M4011.80566,1001.80078h-8q-18,31.00782-56,53-38.01562,21.98438-94,22a212.09663,212.09663,0,0,1-89.5-19.5,239.05012,239.05012,0,0,1-75-54q-32.50781-34.5-51.5-82.5-19.00781-48-19-105,0-57,19-105,18.98438-48,51.5-82.5a239.05012,239.05012,0,0,1,75-54,212.09663,212.09663,0,0,1,89.5-19.5q55.99219,0,94,22,37.99219,22.00782,56,53h8l-8-70v-215h131v716h-123Zm-131-46a130.66267,130.66267,0,0,0,49.5-9.5,123.70222,123.70222,0,0,0,41.5-27.5q18-18,29-44,10.99219-25.99218,11-59,0-33-11-59-11.01562-25.99218-29-44a123.93668,123.93668,0,0,0-41.5-27.5,130.96413,130.96413,0,0,0-49.5-9.5,125.22709,125.22709,0,0,0-49.5,10,130.32464,130.32464,0,0,0-41.5,28q-18,18-29,44-11.01562,26.01563-11,58,0,32.01563,11,58,10.99219,26.01563,29,44a130.06908,130.06908,0,0,0,41.5,28A124.95378,124.95378,0,0,0,3880.80566,955.80078Z" transform="translate(-106.20296 -86.19585)"/><path class="d" d="M4262.79688,344.80078h280q45.98436,0,86,14.5,39.98436,14.50782,69.5,40a191.3394,191.3394,0,0,1,46.5,59.5,161.06874,161.06874,0,0,1,17,73q0,57-27.5,95.5-27.51564,38.50782-68.5,58.5v8q54.98436,20.01563,88.5,62.5,33.49218,42.51563,33.5,105.5,0,46.00782-18.5,82.5a190.96524,190.96524,0,0,1-50.5,62.5q-32.01564,26.01563-74.5,40-42.51564,14.01563-91.5,14h-290Zm270,292q46.99218,0,72.5-25.5,25.5-25.5,25.5-60.5,0-34.99218-25-60-25.00782-24.98437-69-25h-139v171Zm15,300q51,0,78-25.5t27-65.5q0-39.98437-27.5-66.5-27.51564-26.48437-81.5-26.5h-146v184Z" transform="translate(-106.20296 -86.19585)"/><path class="d" d="M5177.794,1008.80078h-8a221.13961,221.13961,0,0,1-55.5,48q-32.50782,19.99219-83.5,20a202.9108,202.9108,0,0,1-71.5-12.5q-33.51562-12.49218-58.5-34.5a154.0186,154.0186,0,0,1-39-53q-14.01562-30.98437-14-68,0-37.99218,15-68.5a155.886,155.886,0,0,1,42-52.5q27-21.98437,63.5-33.5,36.49218-11.48437,79.5-11.5,48,0,79,7.5,30.98438,7.5,51,15.5v-15q0-39-31-64.5-31.00782-25.5-77-25.5-68.01562,0-115,57l-95-65q78-97.99218,213-98,114,0,174,53.5,60,53.50782,60,158.5v294h-129Zm0-147a272.55818,272.55818,0,0,0-47.5-17.5,208.554,208.554,0,0,0-53.5-6.5q-47.01562,0-72.5,20.5-25.5,20.50782-25.5,50.5,0,30,24.5,48,24.49218,18,56.5,18a120.4883,120.4883,0,0,0,85.5-34.5,111.57163,111.57163,0,0,0,32.5-78.5Z" transform="translate(-106.20296 -86.19585)"/><path class="d" d="M5599.793,1076.80078q-48,0-85.5-12t-65-31.5a205.60157,205.60157,0,0,1-46.5-45q-19.00782-25.5-29-51.5l117-50q16.99218,38.01563,45.5,56.5,28.5,18.51563,63.5,18.5,36,0,57-13,21-12.98437,21-31,0-19.99218-17.5-32.5-17.50782-12.49218-60.5-22.5l-69-15a240.25028,240.25028,0,0,1-47.5-16,185.03855,185.03855,0,0,1-44.5-28,141.52458,141.52458,0,0,1-33-41q-13.00782-24-13-56,0-36,15.5-64a144.47326,144.47326,0,0,1,42.5-47.5q27-19.5,63.5-30,36.49218-10.5,78.5-10.5,69.98438,0,125,27.5,54.98438,27.51563,81,87.5l-113,46q-14.01562-28.99218-41-42-27-12.98437-54-13-28.00782,0-49,11.5-21,11.50782-21,29.5,0,17.01563,17.5,27,17.48438,10.00782,47.5,18l75,18q75,18,111.5,57.5,36.49218,39.51563,36.5,93.5a130.96284,130.96284,0,0,1-15,61q-15,29.01563-42.5,51.5-27.51562,22.5-66,35.5Q5646.78515,1076.78516,5599.793,1076.80078Z" transform="translate(-106.20296 -86.19585)"/><path class="d" d="M6357.76953,942.80078a274.53582,274.53582,0,0,1-91.5,97q-57.51562,36.98438-140.5,37-56.01562,0-103.5-19.5a246.89391,246.89391,0,0,1-137-137q-19.5-47.48437-19.5-104.5a268.01159,268.01159,0,0,1,19-100.5,253.60618,253.60618,0,0,1,133.5-139.5q46.5-21,102.5-21,58.9922,0,105,19.5,45.98438,19.5,77,54,30.98438,34.5,47,81.5,15.98438,47.01563,16,102v12a66.80537,66.80537,0,0,0-1,11,55.86718,55.86718,0,0,0-1,11h-369q3.98438,30,16.5,51.5a124.41858,124.41858,0,0,0,31,36,120.23072,120.23072,0,0,0,40.5,21,157.52617,157.52617,0,0,0,45,6.5q45,0,74.5-20.5a149.65764,149.65764,0,0,0,46.5-51.5Zm-119-190q-1.0078-12.98437-8.5-29a102.55,102.55,0,0,0-22-30q-14.5078-13.99218-36-23-21.51562-9-51.5-9-42,0-74,24-32.01562,24-45,67Z" transform="translate(-106.20296 -86.19585)"/></g></g><path class="e" d="M1333.32005,699.756c-.49,102.507-9.115,200.168-29.989,281.877-20.885,82.141-54.01794,148.331-103.79,197.891-49.562,49.773-115.757,82.913-197.9,103.80005-81.71106,20.87695-179.371,29.5-281.879,29.991-102.508-.489-200.168-9.115-281.877-29.989-82.142-20.885-148.331-54.01794-197.891-103.79-49.773-49.562-82.912-115.757-103.8-197.9-20.877-81.71094-29.5-179.371-29.991-281.879.489-102.507,9.115-200.168,29.989-281.877,20.886-82.143,54.02-148.332,103.792-197.893,49.562-49.773,115.757-82.912,197.9-103.8,81.711-20.877,179.372-29.5,281.879-29.991,102.508.489,200.168,9.115,281.877,29.989,82.141,20.885,148.33105,54.018,197.891,103.79,49.773,49.562,82.912,115.757,103.80005,197.9C1324.20494,499.592,1332.82994,597.256,1333.32005,699.756Z" transform="translate(-106.20296 -86.19585)"/><path class="a" d="M444.061,424.061h551.4v551.4h-551.4Z" transform="translate(-106.20296 -86.19585)"/><path class="f" d="M888.855,654.729c-15.853-79.263-85.467-138.768-169.094-138.768A172.212,172.212,0,0,0,566.977,608.78,137.793,137.793,0,0,0,581.91,883.561H880.584A114.916,114.916,0,0,0,995.461,768.685C995.461,708.031,948.361,658.861,888.855,654.729Z" transform="translate(-106.20296 -86.19585)"/></g></svg>