<svg xmlns="http://www.w3.org/2000/svg" xmlns:xlink="http://www.w3.org/1999/xlink" width="7000" height="2000" viewBox="0 0 7000 2000">
  <defs>
    <style>
      .cls-1 {
        clip-path: url(#clip-logo-mark);
      }

      .cls-2 {
        fill: #1a1a1a;
        font-size: 1000px;
        font-family: ProductSans-Bold, Product Sans;
        font-weight: 700;
      }

      .cls-3 {
        fill: #121316;
      }

      .cls-4 {
        fill: none;
      }

      .cls-5 {
        fill: url(#linear-gradient);
      }
    </style>
    <linearGradient id="linear-gradient" x2="1" y2="1" gradientUnits="objectBoundingBox">
      <stop offset="0" stop-color="#6f9"/>
      <stop offset="1" stop-color="#0f972a"/>
    </linearGradient>
    <clipPath id="clip-logo-mark">
      <rect width="7000" height="2000"/>
    </clipPath>
  </defs>
  <g id="logo-mark" class="cls-1">
    <text id="CloudBase" class="cls-2" transform="translate(2095 1354)"><tspan x="0" y="0">CloudBase</tspan></text>
    <path id="Super" class="cls-3" d="M1960.142,1104.545c-.683,142.945-12.711,279.132-41.82,393.073-29.124,114.545-75.328,206.845-144.734,275.957-69.113,69.408-161.422,115.62-275.971,144.749-113.945,29.113-250.131,41.14-393.076,41.822-142.945-.682-279.132-12.711-393.073-41.82C596.922,1889.2,504.622,1843,435.511,1773.593c-69.407-69.113-115.62-161.422-144.748-275.971-29.113-113.945-41.14-250.131-41.823-393.077.682-142.945,12.711-279.132,41.82-393.073,29.125-114.547,75.33-206.847,144.736-275.959,69.113-69.407,161.422-115.62,275.971-144.748,113.945-29.113,250.132-41.14,393.076-41.823,142.946.682,279.132,12.711,393.073,41.82,114.545,29.124,206.845,75.328,275.957,144.734,69.407,69.113,115.62,161.422,144.748,275.971C1947.432,825.414,1959.458,961.6,1960.142,1104.545Z" transform="translate(-104.541 -104.545)"/>
    <g id="material-cloud" transform="translate(668.823 668.823)">
      <path id="Path_20" data-name="Path 20" class="cls-4" d="M0,0H662.353V662.353H0Z"/>
      <path id="Path_21" data-name="Path 21" class="cls-5" d="M534.3,170.692C515.255,75.479,431.633,4,331.177,4A206.865,206.865,0,0,0,147.65,115.5,165.423,165.423,0,0,0,0,279.98c0,91.35,74.239,165.588,165.588,165.588H524.363a138.041,138.041,0,0,0,137.99-137.99C662.353,234.72,605.777,175.66,534.3,170.692Z" transform="translate(0 106.392)"/>
    </g>
  </g>
</svg>
