<svg xmlns="http://www.w3.org/2000/svg" xmlns:xlink="http://www.w3.org/1999/xlink" viewBox="0 0 6827.56975 1711.2041"><defs><style>.a{fill:none;}.b{clip-path:url(#a);}.c{isolation:isolate;}.d{fill:#1a1a1a;}.e{fill:#121316;}.f{fill:#fff;}</style><clipPath id="a" transform="translate(-144.399 -144.39702)"><rect class="a" width="7000" height="2000"/></clipPath></defs><g class="b"><g class="c"><g class="c"><path class="d" d="M2793,1239q-53.01562,64.00782-125,97.5-72,33.49218-161,33.5-80.01562,0-148.5-29-68.50782-28.99218-118.5-79-50.01562-49.99218-79-118.5-29.01562-68.48437-29-147.5,0-78.98437,29-147.5,28.99218-68.48437,79-118.5,49.99218-49.99218,118.5-79,68.48438-28.99218,148.5-29,85.99218,0,151.5,30,65.48438,30,116.5,87l-95,92a254.4446,254.4446,0,0,0-73.5-59q-41.50782-21.98437-98.5-22-50.01562,0-94,17.5a227.58654,227.58654,0,0,0-76.5,49.5q-32.50782,32.01563-51.5,77.5-19.00782,45.51563-19,101.5,0,56.01563,19,101.5,18.98438,45.51563,51.5,77.5a227.11175,227.11175,0,0,0,76.5,49.5q43.99218,17.50782,94,17.5,60,0,106.5-24.5,46.5-24.49218,82.5-69.5Z" transform="translate(-144.399 -144.39702)"/><path class="d" d="M2874.999,1354V638h131v716Z" transform="translate(-144.399 -144.39702)"/><path class="d" d="M3345.00586,848q57,0,104.5,19.5,47.48438,19.5,82,54,34.5,34.5,54,82.5t19.5,105q0,57-19.5,105t-54,82.5q-34.5,34.5-82,54-47.50782,19.5-104.5,19.5-57,0-104.5-19.5-47.50782-19.5-82-54-34.5-34.5-54-82.5t-19.5-105q0-57,19.5-105t54-82.5q34.5-34.5,82-54Q3287.99024,848,3345.00586,848Zm0,401a128.12361,128.12361,0,0,0,48.5-9.5,123.70222,123.70222,0,0,0,41.5-27.5q18-18,28.5-44,10.5-25.99218,10.5-59,0-33-10.5-59-10.5-25.99218-28.5-44a123.93668,123.93668,0,0,0-41.5-27.5,128.425,128.425,0,0,0-48.5-9.5,127.11552,127.11552,0,0,0-49,9.5,125.06936,125.06936,0,0,0-41,27.5q-18,18-28.5,44-10.5,26.01563-10.5,59,0,33,10.5,59,10.5,26.01563,28.5,44a124.827,124.827,0,0,0,41,27.5A126.82638,126.82638,0,0,0,3345.00586,1249Z" transform="translate(-144.399 -144.39702)"/><path class="d" d="M4023.00488,1290h-8a166.02751,166.02751,0,0,1-62,58.5q-39,21.49218-89,21.5-93,0-138.5-57-45.51562-57-45.5-152V864h131v281q0,53.01563,23.5,78.5,23.48438,25.5,68.5,25.5,27,0,47.5-11.5a110.94176,110.94176,0,0,0,35-31q14.48438-19.5,22-46a206.55828,206.55828,0,0,0,7.5-56.5V864h131v490h-123Z" transform="translate(-144.399 -144.39702)"/><path class="d" d="M4618.00488,1295h-8q-18,31.00782-56,53-38.01562,21.98438-94,22a212.09663,212.09663,0,0,1-89.5-19.5,239.05012,239.05012,0,0,1-75-54q-32.50781-34.5-51.5-82.5-19.00781-48-19-105,0-57,19-105,18.98438-48,51.5-82.5a239.05012,239.05012,0,0,1,75-54,212.09663,212.09663,0,0,1,89.5-19.5q55.99219,0,94,22,37.99219,22.00782,56,53h8l-8-70V638h131v716h-123Zm-131-46a130.66267,130.66267,0,0,0,49.5-9.5,123.70222,123.70222,0,0,0,41.5-27.5q18-18,29-44,10.99219-25.99218,11-59,0-33-11-59-11.01562-25.99218-29-44a123.93668,123.93668,0,0,0-41.5-27.5,130.96413,130.96413,0,0,0-49.5-9.5,125.22709,125.22709,0,0,0-49.5,10,130.32464,130.32464,0,0,0-41.5,28q-18,18-29,44-11.01562,26.01563-11,58,0,32.01563,11,58,10.99219,26.01563,29,44a130.06908,130.06908,0,0,0,41.5,28A124.95378,124.95378,0,0,0,4487.00488,1249Z" transform="translate(-144.399 -144.39702)"/><path class="d" d="M4868.99609,638h280q45.98438,0,86,14.5,39.98438,14.50782,69.5,40a191.33911,191.33911,0,0,1,46.5,59.5,161.06861,161.06861,0,0,1,17,73q0,57-27.5,95.5-27.51562,38.50782-68.5,58.5v8q54.98438,20.01563,88.5,62.5,33.4922,42.51563,33.5,105.5,0,46.00782-18.5,82.5a190.965,190.965,0,0,1-50.5,62.5q-32.01562,26.01563-74.5,40-42.51562,14.01563-91.5,14h-290Zm270,292q46.9922,0,72.5-25.5,25.5-25.5,25.5-60.5,0-34.99218-25-60-25.0078-24.98437-69-25h-139V930Zm15,300q51,0,78-25.5t27-65.5q0-39.98437-27.5-66.5-27.51562-26.48437-81.5-26.5h-146v184Z" transform="translate(-144.399 -144.39702)"/><path class="d" d="M5783.99316,1302h-8a221.13961,221.13961,0,0,1-55.5,48q-32.50781,19.99218-83.5,20a202.91107,202.91107,0,0,1-71.5-12.5q-33.51562-12.49218-58.5-34.5a154.01885,154.01885,0,0,1-39-53q-14.01562-30.98437-14-68,0-37.99218,15-68.5a155.886,155.886,0,0,1,42-52.5q27-21.98437,63.5-33.5,36.49219-11.48437,79.5-11.5,48,0,79,7.5,30.98438,7.5,51,15.5v-15q0-39-31-64.5-31.00781-25.5-77-25.5-68.01562,0-115,57l-95-65q78-97.99218,213-98,114,0,174,53.5,60,53.50782,60,158.5v294h-129Zm0-147a272.55788,272.55788,0,0,0-47.5-17.5,208.554,208.554,0,0,0-53.5-6.5q-47.01562,0-72.5,20.5-25.5,20.50782-25.5,50.5,0,30,24.5,48,24.49219,18,56.5,18a120.4883,120.4883,0,0,0,85.5-34.5,111.57163,111.57163,0,0,0,32.5-78.5Z" transform="translate(-144.399 -144.39702)"/><path class="d" d="M6205.99219,1370q-48,0-85.5-12t-65-31.5a205.60157,205.60157,0,0,1-46.5-45q-19.00782-25.5-29-51.5l117-50q16.99218,38.01563,45.5,56.5,28.5,18.51563,63.5,18.5,36,0,57-13,21-12.98437,21-31,0-19.99218-17.5-32.5-17.50782-12.49218-60.5-22.5l-69-15a240.25028,240.25028,0,0,1-47.5-16,185.03855,185.03855,0,0,1-44.5-28,141.52458,141.52458,0,0,1-33-41q-13.00782-24-13-56,0-36,15.5-64a144.47326,144.47326,0,0,1,42.5-47.5q27-19.5,63.5-30,36.49218-10.5,78.5-10.5,69.98438,0,125,27.5,54.98438,27.51563,81,87.5l-113,46q-14.01562-28.99218-41-42-27-12.98437-54-13-28.00782,0-49,11.5-21,11.50782-21,29.5,0,17.01563,17.5,27,17.48438,10.00782,47.5,18l75,18q75,18,111.5,57.5,36.49218,39.51563,36.5,93.5a130.96284,130.96284,0,0,1-15,61q-15,29.01563-42.5,51.5-27.51562,22.5-66,35.5Q6252.98437,1369.98438,6205.99219,1370Z" transform="translate(-144.399 -144.39702)"/><path class="d" d="M6963.96875,1236a274.53582,274.53582,0,0,1-91.5,97q-57.51562,36.98438-140.5,37-56.01562,0-103.5-19.5a246.89391,246.89391,0,0,1-137-137q-19.5-47.48437-19.5-104.5a268.01159,268.01159,0,0,1,19-100.5,253.60618,253.60618,0,0,1,133.5-139.5q46.5-21,102.5-21,58.99219,0,105,19.5,45.98438,19.5,77,54,30.98438,34.5,47,81.5,15.98438,47.01563,16,102v12a66.80537,66.80537,0,0,0-1,11,55.86718,55.86718,0,0,0-1,11h-369q3.98438,30,16.5,51.5a124.41858,124.41858,0,0,0,31,36,120.23072,120.23072,0,0,0,40.5,21,157.52617,157.52617,0,0,0,45,6.5q45,0,74.5-20.5a149.65764,149.65764,0,0,0,46.5-51.5Zm-119-190q-1.00781-12.98437-8.5-29a102.55,102.55,0,0,0-22-30q-14.50781-13.99218-36-23-21.51562-9-51.5-9-42,0-74,24-32.01562,24-45,67Z" transform="translate(-144.399 -144.39702)"/></g></g><path class="e" d="M1855.601,1000.00005c-.683,142.94494-12.71106,279.132-41.82,393.073-29.124,114.545-75.328,206.845-144.734,275.957-69.113,69.408-161.422,115.62-275.97107,144.749-113.94494,29.113-250.131,41.14-393.07592,41.822-142.945-.682-279.132-12.71106-393.073-41.82C492.381,1784.655,400.081,1738.455,330.97,1669.048c-69.407-69.113-115.62-161.422-144.748-275.97095-29.113-113.94494-41.14-250.131-41.823-393.077.682-142.945,12.711-279.132,41.82-393.073,29.125-114.547,75.33-206.847,144.736-275.959,69.113-69.407,161.422-115.62,275.971-144.748,113.945-29.113,250.132-41.14,393.07593-41.823,142.946.682,279.132,12.711,393.073,41.82,114.545,29.124,206.845,75.328,275.957,144.734,69.407,69.113,115.62,161.422,144.748,275.971C1842.891,720.869,1854.917,857.055,1855.601,1000.00005Z" transform="translate(-144.399 -144.39702)"/><path class="a" d="M615.542,615.542h768.916v768.916H615.542Z" transform="translate(-144.399 -144.39702)"/><path class="f" d="M1235.801,937.206C1213.695,826.674,1116.619,743.695,1000,743.695c-92.59,0-173.006,52.543-213.058,129.434a192.037,192.037,0,0,0-171.4,190.948c0,106.046,86.183,192.229,192.229,192.229h416.5a160.249,160.249,0,0,0,160.187-160.191C1384.458,1011.534,1318.78,942.972,1235.801,937.206Z" transform="translate(-144.399 -144.39702)"/></g></svg>