<svg width="939" height="219" viewBox="0 0 939 219" fill="none" xmlns="http://www.w3.org/2000/svg">
<path d="M336.765 83.304L332.309 92.5187C326.21 88.656 318.332 86.1294 311.052 86.1294C302.282 86.1294 295.592 89.2494 295.592 96.5347C295.592 113.924 339.293 105.003 339.293 133.095C339.293 148.556 325.617 155.391 310.606 155.391C299.458 155.391 288.014 151.524 280.585 144.392L285.041 135.623C291.733 141.864 301.833 145.58 311.052 145.58C320.27 145.58 327.7 142.161 327.848 134.431C328.293 115.557 284.448 125.221 284.596 97.424C284.596 82.4147 297.525 76.172 311.793 76.172C321.161 76.172 330.222 78.848 336.765 83.304Z" fill="#1492E6"/>
<path d="M358.314 115.854C358.314 133.096 370.056 144.986 386.406 144.986C402.754 144.986 414.496 133.096 414.496 115.854C414.496 98.7608 402.754 86.8702 386.406 86.8702C370.056 86.8702 358.314 98.7608 358.314 115.854ZM426.089 115.706C426.089 139.189 409.592 155.39 386.406 155.39C363.221 155.39 346.721 139.189 346.721 115.706C346.721 92.3702 363.221 76.3155 386.406 76.3155C409.592 76.3155 426.089 92.3702 426.089 115.706" fill="#1492E6"/>
<path d="M503.823 87.9095L497.432 96.0895C491.487 90.4415 483.61 87.0188 474.098 87.0188C457.896 87.0188 446.302 98.7601 446.302 115.853C446.302 132.947 457.896 144.837 474.098 144.837C484.351 144.837 492.823 141.271 498.323 134.732L505.011 141.864C498.026 150.337 487.175 155.391 473.652 155.391C450.911 155.391 434.858 139.188 434.858 115.853C434.858 92.5188 451.06 76.3161 473.652 76.3161C486.286 76.1721 496.69 80.4801 503.823 87.9095Z" fill="#1492E6"/>
<path d="M522.4 76.6174H533.845V154.945H522.4V76.6174ZM535.625 54.1774C535.625 58.7787 532.361 62.2 528.048 62.2C523.736 62.2 520.471 58.7787 520.471 54.1774C520.471 49.568 523.736 46.1467 528.048 46.1467C532.361 46.1467 535.625 49.568 535.625 54.1774Z" fill="#1492E6"/>
<path d="M606.822 127.892V118.531H582.443C569.366 118.531 562.531 122.54 562.531 131.167C562.531 139.783 569.515 145.431 580.515 145.431C593.739 145.431 603.85 138.744 606.822 127.892V127.892ZM606.97 142.908C600.728 151.375 590.771 155.539 578.288 155.539C562.086 155.539 551.68 145.135 551.68 131.611C551.68 117.936 562.531 109.315 580.96 109.167H606.678V104.557C606.678 93.1132 599.536 86.2772 585.718 86.2772C577.096 86.2772 569.07 89.5466 560.899 95.1946L555.992 86.7226C566.102 80.0359 574.57 76.1719 587.943 76.1719C607.271 76.1719 617.974 86.4252 618.118 103.221L618.266 154.945H606.97V142.908Z" fill="#1492E6"/>
<path d="M641.16 44.6627H652.748V154.945H641.16V44.6627Z" fill="#1492E6"/>
<path d="M731.077 115.26C731.077 102.182 722.906 93.1124 711.163 93.1124C699.273 93.1124 691.094 102.331 690.945 115.26C691.094 128.338 699.121 137.407 711.163 137.407C722.906 137.407 731.077 128.338 731.077 115.26ZM753.818 154.946H731.077V143.204C725.429 151.375 716.813 155.836 705.813 155.836C683.071 155.836 668.055 139.338 668.055 114.667C668.055 90.2924 682.923 74.0911 705.218 74.0911C716.515 74.0911 725.279 78.5511 731.077 86.7231V44.6631H753.818V154.946Z" fill="#1492E6"/>
<path d="M789.191 115.26C789.191 128.338 797.218 137.259 809.111 137.259C820.854 137.259 829.025 128.338 829.025 115.26C829.025 102.182 820.854 93.2604 809.111 93.2604C797.218 93.2604 789.191 102.182 789.191 115.26ZM851.914 114.963C851.914 139.338 834.673 155.836 809.111 155.836C783.394 155.836 766.154 139.338 766.154 114.963C766.154 90.4418 783.394 74.2378 809.111 74.2378C834.673 74.2378 851.914 90.4418 851.914 114.963" fill="#1492E6"/>
<path d="M915.529 112.737C915.529 100.397 907.946 91.925 896.798 91.925C885.655 91.925 878.069 100.546 877.925 112.737C878.069 124.925 885.506 133.392 896.798 133.392C907.946 133.392 915.529 124.925 915.529 112.737ZM938.27 147.513C938.27 170.254 921.177 184.67 895.607 184.67C882.085 184.67 870.047 180.358 860.833 174.117L869.305 158.066C876.585 163.265 885.057 166.09 894.122 166.09C907.205 166.09 915.529 159.105 915.529 148.26V139.189C910.177 146.617 902.001 150.781 891.451 150.781C870.787 150.781 856.523 135.321 856.523 112.14C856.523 89.5463 870.491 74.2383 890.854 74.2383C901.705 74.0903 910.029 78.4023 915.529 85.8316V74.981H938.27V147.513Z" fill="#1492E6"/>
<path d="M118.843 0.350952C53.4257 0.350952 0.397705 40.7083 0.397705 90.4896C0.397705 129.482 32.9324 162.684 78.4724 175.252L112.139 218.316V195.522V180.476V138.072C112.139 138.072 112.187 119.695 79.363 115.592C58.6897 113.01 60.367 90.6643 62.9764 88.7789C64.627 84.7976 101.471 82.6109 104.504 80.9576C107.538 79.3029 111.571 69.3509 116.464 64.5056C125.032 56.0203 132.928 53.8989 143.12 54.4096C145.914 54.5483 146.687 57.7136 147.102 62.1656C149.336 86.3296 139.69 87.4869 137.883 110.634C136.486 128.514 161.759 139.111 168.611 117.06C176.39 92.0136 158.555 60.4896 163.583 61.3283C169.31 62.2843 181.454 78.1469 181.423 90.4896C181.343 124.471 188.576 146.247 195.42 159.234C221.02 142.699 237.288 118.046 237.288 90.4896C237.288 40.7083 184.255 0.350952 118.843 0.350952Z" fill="#1492E6"/>
</svg>
